# xmcd
#
# Track frame offsets:
#       182
#       17705
#       35055
#       67120
#       90880
#       100945
#       120130
#       133935
#       153905
#       169267
#       189055
#
# Disc length: 2711 seconds
#
# Revision: 1
# Processed by: cddbd v1.5.1PL0 Copyright (c) Steve Scherf et al.
# Submitted via: WaveLab 4.01
#
DISCID=830a950b
DTITLE=Ian White - Faith Story
DYEAR=1994
DGENRE=Christian Pop
TTITLE0=Faith Story
TTITLE1=The Lord Will Answer
TTITLE2=Kirie - Spirit Of The Lord
TTITLE3=Precious
TTITLE4=Jesus In Me
TTITLE5=Someday
TTITLE6=Keep On
TTITLE7=Faith Alone
TTITLE8=Adoration
TTITLE9=Giving You All Of My Heart
TTITLE10=The Time Of Faith Is Now
EXTD=
EXTT0=
EXTT1=
EXTT2=
EXTT3=
EXTT4=
EXTT5=
EXTT6=
EXTT7=
EXTT8=
EXTT9=
EXTT10=
PLAYORDER=
